<svg width="300" height="24" viewBox="0 0 300 24" fill="none" xmlns="http://www.w3.org/2000/svg">
<g clip-path="url(#clip0_291_876)">
<path d="M61.9968 23.9937C68.6225 23.9937 73.9937 18.6225 73.9937 11.9968C73.9937 5.37116 68.6225 0 61.9968 0C55.3712 0 50 5.37116 50 11.9968C50 18.6225 55.3712 23.9937 61.9968 23.9937Z" fill="white"/>
<path d="M65.847 12.9676L66.3038 9.97945H63.4299V8.03813C63.4299 7.21973 63.8296 6.42037 65.1174 6.42037H66.4243V3.87635C66.4243 3.87635 65.238 3.67334 64.1087 3.67334C61.7423 3.67334 60.2007 5.10712 60.2007 7.70189V9.97945H57.5742V12.9676H60.2007V20.1999C60.7273 20.2824 61.2665 20.3268 61.8185 20.3268C62.3704 20.3268 62.9097 20.2824 63.4362 20.1999V12.9676H65.847Z" fill="black"/>
</g>
<g clip-path="url(#clip1_291_876)">
<path d="M105.997 23.9937C112.622 23.9937 117.994 18.6225 117.994 11.9968C117.994 5.37116 112.622 0 105.997 0C99.3712 0 94 5.37116 94 11.9968C94 18.6225 99.3712 23.9937 105.997 23.9937Z" fill="white"/>
<path d="M109.886 7.39722C109.41 7.39722 109.023 7.78421 109.023 8.26002C109.023 8.73584 109.41 9.12283 109.886 9.12283C110.362 9.12283 110.749 8.73584 110.749 8.26002C110.749 7.78421 110.362 7.39722 109.886 7.39722Z" fill="black"/>
<path d="M106.06 8.38696C104.067 8.38696 102.443 10.0111 102.443 12.0031C102.443 13.9952 104.067 15.6193 106.06 15.6193C108.052 15.6193 109.676 13.9952 109.676 12.0031C109.676 10.0111 108.052 8.38696 106.06 8.38696ZM106.06 14.3188C104.784 14.3188 103.744 13.2783 103.744 12.0031C103.744 10.728 104.784 9.68752 106.06 9.68752C107.335 9.68752 108.375 10.728 108.375 12.0031C108.375 13.2783 107.335 14.3188 106.06 14.3188Z" fill="black"/>
<path d="M108.933 19.3435H103.071C100.641 19.3435 98.6621 17.3641 98.6621 14.9343V9.07229C98.6621 6.64247 100.641 4.66309 103.071 4.66309H108.933C111.363 4.66309 113.343 6.64247 113.343 9.07229V14.9343C113.343 17.3641 111.363 19.3435 108.933 19.3435ZM103.065 6.03977C101.396 6.03977 100.032 7.39742 100.032 9.07229V14.9343C100.032 16.6028 101.39 17.9668 103.065 17.9668H108.927C110.595 17.9668 111.959 16.6092 111.959 14.9343V9.07229C111.959 7.40377 110.602 6.03977 108.927 6.03977H103.065Z" fill="black"/>
</g>
<g clip-path="url(#clip2_291_876)">
<path d="M149.997 23.9937C156.622 23.9937 161.994 18.6225 161.994 11.9968C161.994 5.37116 156.622 0 149.997 0C143.371 0 138 5.37116 138 11.9968C138 18.6225 143.371 23.9937 149.997 23.9937Z" fill="white"/>
<path d="M142.39 4.84058L148.296 12.7391L142.352 19.1594H143.69L148.892 13.5384L153.099 19.1594H157.654L151.417 10.8168L156.949 4.84058H155.611L150.821 10.0174L146.951 4.84058H142.396H142.39ZM144.356 5.82392H146.45L155.687 18.1697H153.593L144.356 5.82392Z" fill="black"/>
</g>
<g clip-path="url(#clip3_291_876)">
<path d="M193.997 23.9937C200.622 23.9937 205.994 18.6225 205.994 11.9968C205.994 5.37116 200.622 0 193.997 0C187.371 0 182 5.37116 182 11.9968C182 18.6225 187.371 23.9937 193.997 23.9937Z" fill="white"/>
<path d="M200.721 8.03161C200.721 7.96182 200.721 7.96182 200.645 7.96182C200.467 7.96182 200.296 7.94279 200.125 7.91741C199.497 7.82225 197.46 6.75643 197.117 5.00544C197.111 4.97371 197.035 4.53597 197.035 4.35199C197.035 4.26951 197.035 4.26951 196.953 4.26951C196.933 4.26951 196.914 4.26951 196.895 4.26951C196.096 4.26951 195.303 4.26951 194.504 4.26951C194.345 4.26951 194.364 4.25048 194.364 4.40908C194.364 7.86666 194.364 11.3242 194.364 14.7755C194.364 14.9023 194.364 15.0356 194.339 15.1625C194.218 15.8286 193.876 16.3552 193.298 16.7104C192.797 17.0213 192.251 17.1101 191.674 16.9959C191.49 16.9579 191.319 16.8881 191.148 16.8246C191.135 16.8119 191.122 16.7992 191.103 16.7866C191.046 16.7358 190.983 16.6977 190.919 16.6533C190.183 16.1395 189.834 15.4353 189.936 14.5471C190.044 13.6462 190.564 13.0372 191.414 12.7199C191.668 12.6248 191.934 12.5867 192.207 12.5994C192.385 12.6058 192.556 12.6311 192.727 12.6819C192.784 12.7009 192.816 12.6819 192.822 12.6184C192.822 12.5994 192.822 12.574 192.822 12.555C192.822 11.9333 192.797 10.582 192.797 10.5756C192.797 10.398 192.797 10.2203 192.797 10.0427C192.797 9.99195 192.772 9.97927 192.727 9.97927C192.404 9.9412 192.087 9.93486 191.763 9.96023C191.319 9.99195 190.881 10.0871 190.462 10.233C189.79 10.4741 189.2 10.8484 188.692 11.3433C188.255 11.7683 187.912 12.2632 187.658 12.8215C187.417 13.3544 187.278 13.9127 187.24 14.4963C187.221 14.7501 187.227 15.0038 187.252 15.2576C187.284 15.6065 187.354 15.9491 187.455 16.2854C187.76 17.2497 188.318 18.0364 189.111 18.6644C189.194 18.7279 189.27 18.7977 189.365 18.8421C189.403 18.8801 189.447 18.9119 189.485 18.9499C189.612 19.0451 189.752 19.1276 189.891 19.1973C190.78 19.6351 191.712 19.8127 192.696 19.6922C193.971 19.5336 195.037 18.969 195.874 17.9983C196.661 17.0784 197.041 16.0062 197.054 14.8008C197.067 13.0816 197.054 11.356 197.054 9.63668C197.054 9.59862 197.029 9.53517 197.073 9.51614C197.111 9.49711 197.143 9.54786 197.175 9.56689C197.815 9.98561 198.507 10.2901 199.255 10.4614C199.693 10.5629 200.131 10.62 200.581 10.62C200.721 10.62 200.74 10.6137 200.74 10.4741C200.74 9.86507 200.708 8.19021 200.708 8.03161H200.721Z" fill="black"/>
</g>
<g clip-path="url(#clip4_291_876)">
<path d="M237.997 23.9937C244.622 23.9937 249.994 18.6225 249.994 11.9968C249.994 5.37116 244.622 0 237.997 0C231.371 0 226 5.37116 226 11.9968C226 18.6225 231.371 23.9937 237.997 23.9937Z" fill="white"/>
<path d="M245.585 8.19021C245.401 7.51138 244.868 6.97213 244.183 6.78815C242.946 6.45825 237.998 6.45825 237.998 6.45825C237.998 6.45825 233.043 6.45825 231.812 6.78815C231.133 6.97213 230.594 7.50504 230.41 8.19021C230.08 9.42732 230.08 12.0031 230.08 12.0031C230.08 12.0031 230.08 14.5788 230.41 15.8159C230.594 16.4947 231.127 17.034 231.812 17.218C233.049 17.5479 237.998 17.5479 237.998 17.5479C237.998 17.5479 242.952 17.5479 244.183 17.218C244.862 17.034 245.401 16.5011 245.585 15.8159C245.915 14.5788 245.915 12.0031 245.915 12.0031C245.915 12.0031 245.915 9.42732 245.585 8.19021ZM236.418 14.3758V9.62399L240.529 11.9967L236.418 14.3694V14.3758Z" fill="black"/>
</g>
<defs>
<clipPath id="clip0_291_876">
<rect width="24" height="24" fill="white" transform="translate(50)"/>
</clipPath>
<clipPath id="clip1_291_876">
<rect width="24" height="24" fill="white" transform="translate(94)"/>
</clipPath>
<clipPath id="clip2_291_876">
<rect width="24" height="24" fill="white" transform="translate(138)"/>
</clipPath>
<clipPath id="clip3_291_876">
<rect width="24" height="24" fill="white" transform="translate(182)"/>
</clipPath>
<clipPath id="clip4_291_876">
<rect width="24" height="24" fill="white" transform="translate(226)"/>
</clipPath>
</defs>
</svg>
