<svg width="139" height="34" viewBox="0 0 139 34" fill="none" xmlns="http://www.w3.org/2000/svg">
<path d="M0 0.4148H12.4707C16.8557 0.4148 20.0921 1.53 22.1798 3.7638C24.2676 5.9942 25.3114 9.4588 25.3114 14.1508C25.3114 16.5682 24.9623 18.649 24.2641 20.3864C23.5658 22.1238 22.5185 23.5348 21.122 24.6194C20.0467 25.4626 18.8981 26.061 17.6761 26.4146C16.4542 26.7682 14.7714 26.9484 12.6348 26.9484H0V0.4148ZM12.359 5.0354H5.72562V22.3244H12.359C14.8901 22.3244 16.6392 21.7056 17.6028 20.4646C18.5664 19.227 19.0482 16.9626 19.0482 13.6782C19.0482 10.3938 18.5664 8.1464 17.6028 6.902C16.6392 5.6576 14.8901 5.0354 12.359 5.0354ZM34.263 5.253H28.7224V0.4148H34.263V5.253ZM34.263 26.945H28.7224V7.4698H34.263V26.9416V26.945ZM39.231 7.4698H50.0538C52.784 7.4698 54.8403 8.0818 56.2228 9.3024C57.6054 10.523 58.2966 12.3386 58.2966 14.7424V26.9416H44.1013C42.1113 26.9416 40.5821 26.4554 39.5138 25.4796C38.4455 24.5038 37.9113 23.12 37.9113 21.3282C37.9113 19.1148 38.5258 17.527 39.7547 16.5648C40.9836 15.6026 43.026 15.1198 45.8783 15.1198H52.8259V14.6336C52.8259 13.4776 52.4767 12.665 51.7785 12.1958C51.0802 11.7266 49.8374 11.492 48.0429 11.492H39.2205V7.4664H39.231V7.4698ZM46.2519 23.0282H52.8678V19.0026H46.6429C45.407 19.0026 44.5551 19.1658 44.0873 19.4888C43.616 19.8152 43.3821 20.3796 43.3821 21.1854C43.3821 21.8722 43.5706 22.3482 43.9477 22.6202C44.3247 22.8922 45.0928 23.0248 46.2554 23.0248L46.2519 23.0282ZM48.8843 0H54.3515L47.8648 5.1442H45.1975L48.8843 0ZM68.3409 26.945H62.8387V0.4148H68.3409V26.945ZM92.7481 17.2176C92.7481 20.2742 91.795 22.712 89.8853 24.5344C87.9756 26.3568 85.4026 27.268 82.1662 27.268C78.9298 27.268 76.3463 26.3534 74.4192 24.5242C72.492 22.695 71.5284 20.2606 71.5284 17.2142C71.5284 14.1678 72.492 11.713 74.4192 9.877C76.3463 8.041 78.9298 7.1264 82.1662 7.1264C85.4026 7.1264 87.9442 8.0444 89.8644 9.877C91.7845 11.713 92.7446 14.1576 92.7446 17.2142H92.7481V17.2176ZM77.069 17.2176C77.069 19.0706 77.5124 20.5156 78.4026 21.5492C79.2929 22.5828 80.5323 23.0996 82.1278 23.0996C83.7233 23.0996 84.9522 22.5828 85.8529 21.5492C86.7537 20.5156 87.204 19.0706 87.204 17.2176C87.204 15.3646 86.7572 13.923 85.8599 12.8962C84.9627 11.866 83.7198 11.3526 82.1243 11.3526C80.5288 11.3526 79.3034 11.8694 78.4096 12.903C77.5124 13.9366 77.0655 15.3748 77.0655 17.2176H77.069ZM114.725 26.2412C114.725 28.9136 114.114 30.872 112.893 32.1232C111.671 33.3744 109.761 34 107.167 34H96.8084V30.0492H106.259C107.272 30.0492 108.05 29.8112 108.595 29.3352C109.139 28.8592 109.412 28.1724 109.412 27.268V26.9416H105.114C102.89 26.9416 101.291 26.7784 100.314 26.4554C99.3361 26.129 98.4353 25.5782 97.6079 24.7962C96.6548 23.919 95.9252 22.8242 95.4119 21.5118C94.8987 20.1994 94.6439 18.7816 94.6439 17.2516C94.6439 15.7216 94.8987 14.3446 95.4119 13.039C95.9252 11.7334 96.6548 10.642 97.6079 9.7648C98.4598 8.9454 99.4618 8.3606 100.61 8.007C101.759 7.6534 103.26 7.4732 105.114 7.4732H114.732V26.2412H114.725ZM106.664 22.9194H109.408V11.6416H106.664C105.341 11.6416 104.416 11.6892 103.885 11.7844C103.354 11.8796 102.89 12.0428 102.496 12.2706C101.679 12.7534 101.085 13.3858 100.708 14.1746C100.331 14.9634 100.143 15.9868 100.143 17.2516C100.143 19.3324 100.617 20.7978 101.57 21.6444C102.52 22.491 104.22 22.916 106.668 22.916H106.664V22.9194ZM139 17.2176C139 20.2742 138.047 22.712 136.137 24.5344C134.227 26.3568 131.654 27.268 128.418 27.268C125.182 27.268 122.598 26.3534 120.671 24.5242C118.744 22.695 117.78 20.2606 117.78 17.2142C117.78 14.1678 118.744 11.713 120.671 9.877C122.598 8.041 125.182 7.1264 128.418 7.1264C131.654 7.1264 134.196 8.0444 136.116 9.877C138.036 11.713 138.997 14.1576 138.997 17.2142H139V17.2176ZM123.324 17.2176C123.324 19.0706 123.768 20.5156 124.658 21.5492C125.548 22.5828 126.788 23.0996 128.383 23.0996C129.979 23.0996 131.208 22.5828 132.108 21.5492C133.009 20.5156 133.459 19.0706 133.459 17.2176C133.459 15.3646 133.013 13.923 132.115 12.8962C131.218 11.866 129.975 11.3526 128.38 11.3526C126.784 11.3526 125.559 11.8694 124.665 12.903C123.768 13.9366 123.321 15.3748 123.321 17.2176H123.324Z" fill="white"/>
</svg>
