<svg width="300" height="24" viewBox="0 0 300 24" fill="none" xmlns="http://www.w3.org/2000/svg">
<g clip-path="url(#clip0_289_725)">
<path d="M61.9968 23.9937C68.6225 23.9937 73.9937 18.6225 73.9937 11.9968C73.9937 5.37116 68.6225 0 61.9968 0C55.3712 0 50 5.37116 50 11.9968C50 18.6225 55.3712 23.9937 61.9968 23.9937Z" fill="white"/>
<path d="M65.848 12.9676L66.3048 9.97945H63.4309V8.03813C63.4309 7.21973 63.8305 6.42037 65.1184 6.42037H66.4253V3.87635C66.4253 3.87635 65.239 3.67334 64.1097 3.67334C61.7433 3.67334 60.2017 5.10712 60.2017 7.70189V9.97945H57.5752V12.9676H60.2017V20.1999C60.7282 20.2824 61.2675 20.3268 61.8194 20.3268C62.3714 20.3268 62.9106 20.2824 63.4372 20.1999V12.9676H65.848Z" fill="black"/>
</g>
<g clip-path="url(#clip1_289_725)">
<path d="M105.997 23.9937C112.622 23.9937 117.994 18.6225 117.994 11.9968C117.994 5.37116 112.622 0 105.997 0C99.3712 0 94 5.37116 94 11.9968C94 18.6225 99.3712 23.9937 105.997 23.9937Z" fill="white"/>
<path d="M109.886 7.39722C109.41 7.39722 109.023 7.78421 109.023 8.26002C109.023 8.73584 109.41 9.12283 109.886 9.12283C110.362 9.12283 110.749 8.73584 110.749 8.26002C110.749 7.78421 110.362 7.39722 109.886 7.39722Z" fill="black"/>
<path d="M106.061 8.38696C104.068 8.38696 102.444 10.0111 102.444 12.0031C102.444 13.9952 104.068 15.6193 106.061 15.6193C108.053 15.6193 109.677 13.9952 109.677 12.0031C109.677 10.0111 108.053 8.38696 106.061 8.38696ZM106.061 14.3188C104.785 14.3188 103.745 13.2783 103.745 12.0031C103.745 10.728 104.785 9.68752 106.061 9.68752C107.336 9.68752 108.376 10.728 108.376 12.0031C108.376 13.2783 107.336 14.3188 106.061 14.3188Z" fill="black"/>
<path d="M108.934 19.3435H103.072C100.642 19.3435 98.6631 17.3641 98.6631 14.9343V9.07229C98.6631 6.64247 100.642 4.66309 103.072 4.66309H108.934C111.364 4.66309 113.343 6.64247 113.343 9.07229V14.9343C113.343 17.3641 111.364 19.3435 108.934 19.3435ZM103.066 6.03977C101.397 6.03977 100.033 7.39742 100.033 9.07229V14.9343C100.033 16.6028 101.391 17.9668 103.066 17.9668H108.928C110.596 17.9668 111.96 16.6092 111.96 14.9343V9.07229C111.96 7.40377 110.603 6.03977 108.928 6.03977H103.066Z" fill="black"/>
</g>
<g clip-path="url(#clip2_289_725)">
<path d="M149.997 23.9937C156.622 23.9937 161.994 18.6225 161.994 11.9968C161.994 5.37116 156.622 0 149.997 0C143.371 0 138 5.37116 138 11.9968C138 18.6225 143.371 23.9937 149.997 23.9937Z" fill="white"/>
<path d="M142.391 4.84058L148.297 12.7391L142.353 19.1594H143.691L148.893 13.5384L153.1 19.1594H157.655L151.418 10.8168L156.95 4.84058H155.612L150.822 10.0174L146.952 4.84058H142.397H142.391ZM144.357 5.82392H146.451L155.688 18.1697H153.594L144.357 5.82392Z" fill="black"/>
</g>
<g clip-path="url(#clip3_289_725)">
<path d="M193.997 23.9937C200.622 23.9937 205.994 18.6225 205.994 11.9968C205.994 5.37116 200.622 0 193.997 0C187.371 0 182 5.37116 182 11.9968C182 18.6225 187.371 23.9937 193.997 23.9937Z" fill="white"/>
<path d="M200.722 8.03161C200.722 7.96182 200.722 7.96182 200.646 7.96182C200.468 7.96182 200.297 7.94279 200.126 7.91741C199.497 7.82225 197.461 6.75643 197.118 5.00544C197.112 4.97371 197.036 4.53597 197.036 4.35199C197.036 4.26951 197.036 4.26951 196.953 4.26951C196.934 4.26951 196.915 4.26951 196.896 4.26951C196.097 4.26951 195.304 4.26951 194.505 4.26951C194.346 4.26951 194.365 4.25048 194.365 4.40908C194.365 7.86666 194.365 11.3242 194.365 14.7755C194.365 14.9023 194.365 15.0356 194.34 15.1625C194.219 15.8286 193.877 16.3552 193.299 16.7104C192.798 17.0213 192.252 17.1101 191.675 16.9959C191.491 16.9579 191.32 16.8881 191.149 16.8246C191.136 16.8119 191.123 16.7992 191.104 16.7866C191.047 16.7358 190.984 16.6977 190.92 16.6533C190.184 16.1395 189.835 15.4353 189.937 14.5471C190.045 13.6462 190.565 13.0372 191.415 12.7199C191.669 12.6248 191.935 12.5867 192.208 12.5994C192.386 12.6058 192.557 12.6311 192.728 12.6819C192.785 12.7009 192.817 12.6819 192.823 12.6184C192.823 12.5994 192.823 12.574 192.823 12.555C192.823 11.9333 192.798 10.582 192.798 10.5756C192.798 10.398 192.798 10.2203 192.798 10.0427C192.798 9.99195 192.773 9.97927 192.728 9.97927C192.405 9.9412 192.088 9.93486 191.764 9.96023C191.32 9.99195 190.882 10.0871 190.463 10.233C189.791 10.4741 189.201 10.8484 188.693 11.3433C188.256 11.7683 187.913 12.2632 187.659 12.8215C187.418 13.3544 187.279 13.9127 187.241 14.4963C187.222 14.7501 187.228 15.0038 187.253 15.2576C187.285 15.6065 187.355 15.9491 187.456 16.2854C187.761 17.2497 188.319 18.0364 189.112 18.6644C189.195 18.7279 189.271 18.7977 189.366 18.8421C189.404 18.8801 189.448 18.9119 189.486 18.9499C189.613 19.0451 189.753 19.1276 189.892 19.1973C190.781 19.6351 191.713 19.8127 192.697 19.6922C193.972 19.5336 195.038 18.969 195.875 17.9983C196.662 17.0784 197.042 16.0062 197.055 14.8008C197.068 13.0816 197.055 11.356 197.055 9.63668C197.055 9.59862 197.03 9.53517 197.074 9.51614C197.112 9.49711 197.144 9.54786 197.176 9.56689C197.816 9.98561 198.508 10.2901 199.256 10.4614C199.694 10.5629 200.132 10.62 200.582 10.62C200.722 10.62 200.741 10.6137 200.741 10.4741C200.741 9.86507 200.709 8.19021 200.709 8.03161H200.722Z" fill="black"/>
</g>
<g clip-path="url(#clip4_289_725)">
<path d="M237.997 23.9937C244.622 23.9937 249.994 18.6225 249.994 11.9968C249.994 5.37116 244.622 0 237.997 0C231.371 0 226 5.37116 226 11.9968C226 18.6225 231.371 23.9937 237.997 23.9937Z" fill="white"/>
<path d="M245.584 8.19021C245.4 7.51138 244.867 6.97213 244.182 6.78815C242.945 6.45825 237.997 6.45825 237.997 6.45825C237.997 6.45825 233.042 6.45825 231.811 6.78815C231.132 6.97213 230.593 7.50504 230.409 8.19021C230.079 9.42732 230.079 12.0031 230.079 12.0031C230.079 12.0031 230.079 14.5788 230.409 15.8159C230.593 16.4947 231.126 17.034 231.811 17.218C233.048 17.5479 237.997 17.5479 237.997 17.5479C237.997 17.5479 242.951 17.5479 244.182 17.218C244.861 17.034 245.4 16.5011 245.584 15.8159C245.914 14.5788 245.914 12.0031 245.914 12.0031C245.914 12.0031 245.914 9.42732 245.584 8.19021ZM236.417 14.3758V9.62399L240.528 11.9967L236.417 14.3694V14.3758Z" fill="black"/>
</g>
<defs>
<clipPath id="clip0_289_725">
<rect width="24" height="24" fill="white" transform="translate(50)"/>
</clipPath>
<clipPath id="clip1_289_725">
<rect width="24" height="24" fill="white" transform="translate(94)"/>
</clipPath>
<clipPath id="clip2_289_725">
<rect width="24" height="24" fill="white" transform="translate(138)"/>
</clipPath>
<clipPath id="clip3_289_725">
<rect width="24" height="24" fill="white" transform="translate(182)"/>
</clipPath>
<clipPath id="clip4_289_725">
<rect width="24" height="24" fill="white" transform="translate(226)"/>
</clipPath>
</defs>
</svg>
