<svg width="301" height="24" viewBox="0 0 301 24" fill="none" xmlns="http://www.w3.org/2000/svg">
<g clip-path="url(#clip0_289_578)">
<path d="M62.4968 23.9937C69.1225 23.9937 74.4937 18.6225 74.4937 11.9968C74.4937 5.37116 69.1225 0 62.4968 0C55.8712 0 50.5 5.37116 50.5 11.9968C50.5 18.6225 55.8712 23.9937 62.4968 23.9937Z" fill="white"/>
<path d="M66.348 12.9676L66.8048 9.97944H63.9309V8.03813C63.9309 7.21973 64.3305 6.42037 65.6184 6.42037H66.9253V3.87635C66.9253 3.87635 65.739 3.67334 64.6097 3.67334C62.2433 3.67334 60.7017 5.10712 60.7017 7.70189V9.97944H58.0752V12.9676H60.7017V20.1999C61.2282 20.2824 61.7675 20.3268 62.3194 20.3268C62.8714 20.3268 63.4106 20.2824 63.9372 20.1999V12.9676H66.348Z" fill="black"/>
</g>
<g clip-path="url(#clip1_289_578)">
<path d="M106.497 23.9937C113.122 23.9937 118.494 18.6225 118.494 11.9968C118.494 5.37116 113.122 0 106.497 0C99.8712 0 94.5 5.37116 94.5 11.9968C94.5 18.6225 99.8712 23.9937 106.497 23.9937Z" fill="white"/>
<path d="M110.386 7.39722C109.91 7.39722 109.523 7.78421 109.523 8.26002C109.523 8.73584 109.91 9.12283 110.386 9.12283C110.862 9.12283 111.249 8.73584 111.249 8.26002C111.249 7.78421 110.862 7.39722 110.386 7.39722Z" fill="black"/>
<path d="M106.561 8.38696C104.568 8.38696 102.944 10.0111 102.944 12.0031C102.944 13.9952 104.568 15.6193 106.561 15.6193C108.553 15.6193 110.177 13.9952 110.177 12.0031C110.177 10.0111 108.553 8.38696 106.561 8.38696ZM106.561 14.3188C105.285 14.3188 104.245 13.2783 104.245 12.0031C104.245 10.728 105.285 9.68752 106.561 9.68752C107.836 9.68752 108.876 10.728 108.876 12.0031C108.876 13.2783 107.836 14.3188 106.561 14.3188Z" fill="black"/>
<path d="M109.434 19.3435H103.572C101.142 19.3435 99.1631 17.3641 99.1631 14.9343V9.07229C99.1631 6.64247 101.142 4.66309 103.572 4.66309H109.434C111.864 4.66309 113.843 6.64247 113.843 9.07229V14.9343C113.843 17.3641 111.864 19.3435 109.434 19.3435ZM103.566 6.03977C101.897 6.03977 100.533 7.39742 100.533 9.07229V14.9343C100.533 16.6028 101.891 17.9668 103.566 17.9668H109.428C111.096 17.9668 112.46 16.6092 112.46 14.9343V9.07229C112.46 7.40377 111.103 6.03977 109.428 6.03977H103.566Z" fill="black"/>
</g>
<g clip-path="url(#clip2_289_578)">
<path d="M150.497 23.9937C157.122 23.9937 162.494 18.6225 162.494 11.9968C162.494 5.37116 157.122 0 150.497 0C143.871 0 138.5 5.37116 138.5 11.9968C138.5 18.6225 143.871 23.9937 150.497 23.9937Z" fill="white"/>
<path d="M142.891 4.84058L148.797 12.7391L142.853 19.1594H144.191L149.393 13.5384L153.6 19.1594H158.155L151.918 10.8168L157.45 4.84058H156.112L151.322 10.0174L147.452 4.84058H142.897H142.891ZM144.857 5.82392H146.951L156.188 18.1697H154.094L144.857 5.82392Z" fill="black"/>
</g>
<g clip-path="url(#clip3_289_578)">
<path d="M194.497 23.9937C201.122 23.9937 206.494 18.6225 206.494 11.9968C206.494 5.37116 201.122 0 194.497 0C187.871 0 182.5 5.37116 182.5 11.9968C182.5 18.6225 187.871 23.9937 194.497 23.9937Z" fill="white"/>
<path d="M201.222 8.03161C201.222 7.96182 201.222 7.96182 201.146 7.96182C200.968 7.96182 200.797 7.94279 200.626 7.91741C199.997 7.82225 197.961 6.75643 197.618 5.00544C197.612 4.97371 197.536 4.53597 197.536 4.35199C197.536 4.26951 197.536 4.26951 197.453 4.26951C197.434 4.26951 197.415 4.26951 197.396 4.26951C196.597 4.26951 195.804 4.26951 195.005 4.26951C194.846 4.26951 194.865 4.25048 194.865 4.40908C194.865 7.86666 194.865 11.3242 194.865 14.7755C194.865 14.9023 194.865 15.0356 194.84 15.1625C194.719 15.8286 194.377 16.3552 193.799 16.7104C193.298 17.0213 192.752 17.1101 192.175 16.9959C191.991 16.9579 191.82 16.8881 191.649 16.8246C191.636 16.8119 191.623 16.7992 191.604 16.7866C191.547 16.7358 191.484 16.6977 191.42 16.6533C190.684 16.1395 190.335 15.4353 190.437 14.5471C190.545 13.6462 191.065 13.0372 191.915 12.7199C192.169 12.6248 192.435 12.5867 192.708 12.5994C192.886 12.6058 193.057 12.6311 193.228 12.6819C193.285 12.7009 193.317 12.6819 193.323 12.6184C193.323 12.5994 193.323 12.574 193.323 12.555C193.323 11.9333 193.298 10.582 193.298 10.5756C193.298 10.398 193.298 10.2203 193.298 10.0427C193.298 9.99195 193.273 9.97927 193.228 9.97927C192.905 9.9412 192.588 9.93486 192.264 9.96023C191.82 9.99195 191.382 10.0871 190.963 10.233C190.291 10.4741 189.701 10.8484 189.193 11.3433C188.756 11.7683 188.413 12.2632 188.159 12.8215C187.918 13.3544 187.779 13.9127 187.741 14.4963C187.722 14.7501 187.728 15.0038 187.753 15.2576C187.785 15.6065 187.855 15.9491 187.956 16.2854C188.261 17.2497 188.819 18.0364 189.612 18.6644C189.695 18.7279 189.771 18.7977 189.866 18.8421C189.904 18.8801 189.948 18.9119 189.986 18.9499C190.113 19.0451 190.253 19.1276 190.392 19.1973C191.281 19.6351 192.213 19.8127 193.197 19.6922C194.472 19.5336 195.538 18.969 196.375 17.9983C197.162 17.0784 197.542 16.0062 197.555 14.8008C197.568 13.0816 197.555 11.356 197.555 9.63668C197.555 9.59862 197.53 9.53517 197.574 9.51614C197.612 9.49711 197.644 9.54786 197.676 9.56689C198.316 9.98561 199.008 10.2901 199.756 10.4614C200.194 10.5629 200.632 10.62 201.082 10.62C201.222 10.62 201.241 10.6137 201.241 10.4741C201.241 9.86507 201.209 8.19021 201.209 8.03161H201.222Z" fill="black"/>
</g>
<g clip-path="url(#clip4_289_578)">
<path d="M238.497 23.9937C245.122 23.9937 250.494 18.6225 250.494 11.9968C250.494 5.37116 245.122 0 238.497 0C231.871 0 226.5 5.37116 226.5 11.9968C226.5 18.6225 231.871 23.9937 238.497 23.9937Z" fill="white"/>
<path d="M246.084 8.19021C245.9 7.51138 245.367 6.97213 244.682 6.78815C243.445 6.45825 238.497 6.45825 238.497 6.45825C238.497 6.45825 233.542 6.45825 232.311 6.78815C231.632 6.97213 231.093 7.50504 230.909 8.19021C230.579 9.42732 230.579 12.0031 230.579 12.0031C230.579 12.0031 230.579 14.5788 230.909 15.8159C231.093 16.4947 231.626 17.034 232.311 17.218C233.548 17.5479 238.497 17.5479 238.497 17.5479C238.497 17.5479 243.451 17.5479 244.682 17.218C245.361 17.034 245.9 16.5011 246.084 15.8159C246.414 14.5788 246.414 12.0031 246.414 12.0031C246.414 12.0031 246.414 9.42732 246.084 8.19021ZM236.917 14.3758V9.62399L241.028 11.9967L236.917 14.3694V14.3758Z" fill="black"/>
</g>
<defs>
<clipPath id="clip0_289_578">
<rect width="24" height="24" fill="white" transform="translate(50.5)"/>
</clipPath>
<clipPath id="clip1_289_578">
<rect width="24" height="24" fill="white" transform="translate(94.5)"/>
</clipPath>
<clipPath id="clip2_289_578">
<rect width="24" height="24" fill="white" transform="translate(138.5)"/>
</clipPath>
<clipPath id="clip3_289_578">
<rect width="24" height="24" fill="white" transform="translate(182.5)"/>
</clipPath>
<clipPath id="clip4_289_578">
<rect width="24" height="24" fill="white" transform="translate(226.5)"/>
</clipPath>
</defs>
</svg>
